# Blender v2.93.6 OBJ File: 'snall_spaceship.blend'
# www.blender.org
mtllib bomblet.mtl
o bomblet_Cube.003
v -0.642229 -0.588695 -0.286054
v -0.597787 0.586863 -0.286054
v -0.211793 -0.206200 -0.709640
v -0.201874 0.216790 -0.709640
v 0.597787 -0.547965 -0.286054
v 0.642229 0.588459 -0.286054
v 0.201874 -0.201874 -0.709640
v 0.211793 0.211793 -0.709640
v -0.871233 0.000000 -0.286054
v -0.281783 0.000000 -0.709640
v 0.000000 -0.302508 -0.709640
v 0.000000 0.302508 -0.709640
v 0.281783 0.000000 -0.709640
v 0.844170 0.000000 -0.286054
v 0.000000 -0.862684 -0.286054
v 0.000000 0.862684 -0.286054
v 0.000000 0.000000 -0.692762
v -0.211793 -0.211793 1.094403
v -0.211793 0.211793 1.094403
v 0.211793 -0.211793 1.094403
v 0.211793 0.211793 1.094403
v -0.281783 0.000000 1.094403
v 0.000000 -0.275869 1.094403
v 0.000000 0.275869 1.094403
v 0.281783 0.000000 1.094403
v -0.281783 0.000000 0.488895
v -0.211793 -0.211793 0.488895
v 0.000000 -0.275869 0.488895
v 0.000000 0.275869 0.488895
v 0.211793 0.211794 0.488895
v 0.281783 0.000000 0.488895
v 0.211793 -0.211793 0.488895
v -0.211793 0.211794 0.488895
v -0.760564 -0.140994 -0.288332
v -0.690575 -0.352787 -0.288332
v 0.693879 0.377195 -0.265365
v 0.763868 0.165402 -0.265365
v 0.549232 0.329395 -0.368299
v 0.619221 0.117602 -0.368299
v 0.870094 -0.002147 -0.282911
v -0.818245 -0.002147 -0.282911
v -0.651644 -0.105000 -0.361957
v -0.581655 -0.316794 -0.361957
vt 0.370514 0.513637
vt 0.160110 0.507149
vt 0.228133 0.323594
vt 0.291190 0.322409
vt 0.227327 0.183837
vt 0.182243 0.223628
vt 0.000172 0.138525
vt 0.145263 0.002195
vt 0.244669 0.753759
vt 0.488651 0.858475
vt 0.338679 0.994989
vt 0.139136 0.999828
vt 0.332683 0.218513
vt 0.285417 0.183218
vt 0.343428 0.000172
vt 0.517639 0.142461
vt 0.184141 0.285574
vt 0.000910 0.361215
vt 0.334217 0.280775
vt 0.517639 0.371243
vt 0.001226 0.647938
vt 0.000172 0.862828
vt 0.161540 0.515994
vt 0.346783 0.513982
vt 0.488651 0.643510
vt 0.724770 0.673618
vt 0.671761 0.636336
vt 0.671761 0.572048
vt 0.707398 0.518542
vt 0.772184 0.516897
vt 0.825193 0.554179
vt 0.825193 0.618467
vt 0.789556 0.671974
vt 0.570993 0.673618
vt 0.517984 0.636336
vt 0.517984 0.572048
vt 0.553621 0.518542
vt 0.618407 0.516897
vt 0.671416 0.554179
vt 0.671416 0.618467
vt 0.635779 0.671974
vt 0.517984 0.452264
vt 0.517984 0.387457
vt 0.693907 0.387457
vt 0.693907 0.452264
vt 0.517984 0.194074
vt 0.517984 0.129267
vt 0.693907 0.129267
vt 0.693907 0.194074
vt 0.517984 0.064461
vt 0.517984 0.000172
vt 0.693907 0.000172
vt 0.693907 0.064461
vt 0.517984 0.516552
vt 0.693907 0.516552
vt 0.517984 0.322651
vt 0.517984 0.258362
vt 0.693907 0.258362
vt 0.693907 0.322650
vt 0.571401 0.673963
vt 0.571401 0.738770
vt 0.517984 0.738770
vt 0.517984 0.673963
vt 0.694251 0.064979
vt 0.694251 0.000172
vt 0.733854 0.000172
vt 0.733854 0.064979
vn -0.5745 0.2526 -0.7786
vn 0.5907 0.2007 -0.7815
vn 0.3073 -0.3104 0.8996
vn 0.3003 -0.5781 -0.7587
vn -0.2646 0.5853 -0.7664
vn 0.2495 0.5839 -0.7725
vn -0.2518 -0.5808 -0.7742
vn 0.2979 0.3009 0.9059
vn -0.3206 0.3137 0.8938
vn -0.3025 -0.2960 0.9060
vn 0.5869 -0.2554 -0.7683
vn 0.0000 0.0000 -1.0000
vn -0.5746 -0.2161 -0.7894
vn 0.0000 0.0000 1.0000
vn -0.9495 -0.3138 -0.0000
vn 0.9495 0.3138 0.0000
vn 0.2896 -0.9572 -0.0000
vn 0.9495 -0.3138 -0.0000
vn -0.2896 -0.9572 -0.0000
vn -0.2896 0.9572 0.0000
vn -0.9495 0.3138 0.0000
vn 0.2896 0.9572 0.0000
vn -0.5316 -0.1757 0.8286
vn 0.5129 0.1695 0.8416
usemtl Material.002
s off
f 9/1/1 2/2/1 4/3/1 10/4/1
f 13/5/2 8/6/2 6/7/2 14/8/2
f 17/9/3 16/10/3 2/11/3 9/12/3
f 11/13/4 7/14/4 5/15/4 15/16/4
f 12/17/5 4/3/5 2/2/5 16/18/5
f 8/6/6 12/17/6 16/18/6 6/7/6
f 3/19/7 11/13/7 15/16/7 1/20/7
f 15/21/8 17/9/8 9/12/8 1/22/8
f 5/23/9 14/24/9 17/9/9 15/21/9
f 14/24/10 6/25/10 16/10/10 17/9/10
f 7/14/11 13/5/11 14/8/11 5/15/11
f 10/4/12 4/3/12 12/17/12 8/6/12 13/5/12 7/14/12 11/13/12 3/19/12
f 1/20/13 9/1/13 10/4/13 3/19/13
f 22/26/14 18/27/14 23/28/14 20/29/14 25/30/14 21/31/14 24/32/14 19/33/14
f 26/34/12 33/35/12 29/36/12 30/37/12 31/38/12 32/39/12 28/40/12 27/41/12
f 18/42/15 22/43/15 26/44/15 27/45/15
f 21/46/16 25/47/16 31/48/16 30/49/16
f 20/50/17 23/51/17 28/52/17 32/53/17
f 25/47/18 20/50/18 32/53/18 31/48/18
f 23/54/19 18/42/19 27/45/19 28/55/19
f 19/56/20 24/57/20 29/58/20 33/59/20
f 22/43/21 19/56/21 33/59/21 26/44/21
f 24/57/22 21/46/22 30/49/22 29/58/22
f 37/60/23 36/61/23 38/62/23 39/63/23
f 34/64/24 35/65/24 43/66/24 42/67/24
l 14 40
l 9 41
