# Blender v2.93.6 OBJ File: 'snall_spaceship.blend'
# www.blender.org
mtllib bomblet_closed.mtl
o bomblet_closed_Cube.005
v -0.222057 -0.199866 -0.005181
v -0.206781 0.204201 -0.005181
v -0.104676 -0.099348 -0.506261
v -0.099811 0.108089 -0.506261
v 0.204166 -0.185866 -0.005181
v 0.219442 0.204750 -0.005181
v 0.098189 -0.097226 -0.506261
v 0.103053 0.105638 -0.506261
v -0.300771 0.002483 -0.005181
v -0.138999 0.001774 -0.506261
v -0.000811 -0.146578 -0.506261
v -0.000811 0.150125 -0.506261
v 0.137377 0.001774 -0.506261
v 0.288853 0.002483 -0.005181
v -0.001307 -0.294042 -0.005181
v -0.001307 0.299007 -0.005181
v -0.000811 0.001774 -0.419711
v -0.211793 -0.211793 0.593342
v -0.211793 0.211793 0.593342
v 0.211793 -0.211793 0.593342
v 0.211793 0.211793 0.593342
v -0.281783 0.000000 0.593342
v 0.000000 -0.275869 0.593342
v 0.000000 0.275869 0.593342
v 0.281783 0.000000 0.593342
v -0.281783 0.000000 -0.012166
v -0.211793 -0.211793 -0.012166
v 0.000000 -0.275869 -0.012166
v 0.000000 0.275869 -0.012166
v 0.211793 0.211794 -0.012166
v 0.281783 0.000000 -0.012166
v 0.211793 -0.211793 -0.012166
v -0.211793 0.211794 -0.012166
vt 0.370514 0.513637
vt 0.160110 0.507149
vt 0.228133 0.323594
vt 0.291190 0.322409
vt 0.227327 0.183837
vt 0.182243 0.223628
vt 0.000172 0.138525
vt 0.145263 0.002195
vt 0.244669 0.753759
vt 0.488651 0.858475
vt 0.338679 0.994989
vt 0.139136 0.999828
vt 0.332683 0.218513
vt 0.285417 0.183218
vt 0.343428 0.000172
vt 0.517639 0.142461
vt 0.184141 0.285574
vt 0.000910 0.361215
vt 0.334217 0.280775
vt 0.517639 0.371243
vt 0.001226 0.647938
vt 0.000172 0.862828
vt 0.161540 0.515994
vt 0.346783 0.513982
vt 0.488651 0.643510
vt 0.724770 0.673618
vt 0.671761 0.636336
vt 0.671761 0.572048
vt 0.707398 0.518542
vt 0.772184 0.516897
vt 0.825193 0.554179
vt 0.825193 0.618467
vt 0.789556 0.671974
vt 0.570993 0.673618
vt 0.517984 0.636336
vt 0.517984 0.572048
vt 0.553621 0.518542
vt 0.618407 0.516897
vt 0.671416 0.554179
vt 0.671416 0.618467
vt 0.635779 0.671974
vt 0.517984 0.452264
vt 0.517984 0.387457
vt 0.693907 0.387457
vt 0.693907 0.452264
vt 0.517984 0.194074
vt 0.517984 0.129267
vt 0.693907 0.129267
vt 0.693907 0.194074
vt 0.517984 0.064461
vt 0.517984 0.000172
vt 0.693907 0.000172
vt 0.693907 0.064461
vt 0.517984 0.516552
vt 0.693907 0.516552
vt 0.517984 0.322651
vt 0.517984 0.258362
vt 0.693907 0.258362
vt 0.693907 0.322650
vn -0.8829 0.3817 -0.2736
vn 0.9108 0.3086 -0.2742
vn 0.5773 -0.5831 0.5716
vn 0.4450 -0.8601 -0.2495
vn -0.3961 0.8813 -0.2579
vn 0.3791 0.8871 -0.2634
vn -0.3852 -0.8842 -0.2641
vn 0.5707 0.5763 0.5849
vn -0.5938 0.5810 0.5566
vn -0.5794 -0.5670 0.5855
vn 0.8864 -0.3821 -0.2612
vn 0.0000 0.0000 -1.0000
vn -0.8986 -0.3347 -0.2836
vn 0.0000 0.0000 1.0000
vn -0.9495 -0.3138 -0.0000
vn 0.9495 0.3138 0.0000
vn 0.2896 -0.9572 -0.0000
vn 0.9495 -0.3138 -0.0000
vn -0.2896 -0.9572 -0.0000
vn -0.2896 0.9572 0.0000
vn -0.9495 0.3138 0.0000
vn 0.2896 0.9572 0.0000
usemtl Material.002
s off
f 9/1/1 2/2/1 4/3/1 10/4/1
f 13/5/2 8/6/2 6/7/2 14/8/2
f 17/9/3 16/10/3 2/11/3 9/12/3
f 11/13/4 7/14/4 5/15/4 15/16/4
f 12/17/5 4/3/5 2/2/5 16/18/5
f 8/6/6 12/17/6 16/18/6 6/7/6
f 3/19/7 11/13/7 15/16/7 1/20/7
f 15/21/8 17/9/8 9/12/8 1/22/8
f 5/23/9 14/24/9 17/9/9 15/21/9
f 14/24/10 6/25/10 16/10/10 17/9/10
f 7/14/11 13/5/11 14/8/11 5/15/11
f 10/4/12 4/3/12 12/17/12 8/6/12 13/5/12 7/14/12 11/13/12 3/19/12
f 1/20/13 9/1/13 10/4/13 3/19/13
f 22/26/14 18/27/14 23/28/14 20/29/14 25/30/14 21/31/14 24/32/14 19/33/14
f 26/34/12 33/35/12 29/36/12 30/37/12 31/38/12 32/39/12 28/40/12 27/41/12
f 18/42/15 22/43/15 26/44/15 27/45/15
f 21/46/16 25/47/16 31/48/16 30/49/16
f 20/50/17 23/51/17 28/52/17 32/53/17
f 25/47/18 20/50/18 32/53/18 31/48/18
f 23/54/19 18/42/19 27/45/19 28/55/19
f 19/56/20 24/57/20 29/58/20 33/59/20
f 22/43/21 19/56/21 33/59/21 26/44/21
f 24/57/22 21/46/22 30/49/22 29/58/22
