# Blender v2.93.6 OBJ File: 'snall_spaceship.blend'
# www.blender.org
mtllib impact.mtl
o Cube_Cube.004
v -1.108333 -3.855577 0.788269
v 0.308422 -0.538252 -0.091287
v 0.006700 -0.719734 -0.091287
v -0.471777 -0.215824 0.949914
v 0.599619 -0.215824 0.949914
v -0.471777 -0.994594 0.346792
v -0.745074 0.610647 0.346792
v 0.817656 0.611297 0.346792
v 0.599619 -0.994594 0.346792
v 0.848017 -0.215824 0.346792
v -0.855385 -0.215824 0.346792
v 0.063921 0.562945 0.949914
v 0.063921 -0.994594 0.949914
v 0.061235 -0.215824 1.392026
v 0.063921 -1.224252 0.346792
v 0.000000 0.951380 0.346792
v 1.053831 1.291955 3.830028
v 1.760821 -2.155827 1.948724
v -0.473177 0.237083 -0.091287
v 0.006700 0.438159 -0.091287
v -3.449198 -1.945994 1.777892
v 0.593778 -0.140759 -0.091287
v 0.432508 0.228871 -0.091287
v -2.204158 2.229021 1.964717
v 0.803194 2.132479 1.569463
v -0.572972 -0.140759 -0.091287
v -0.373386 -0.708021 -0.091287
v -1.299213 -1.597756 5.122229
v 2.613225 1.220789 2.234919
v -0.384611 -1.617054 0.958583
v -1.605101 -0.962259 1.144708
v -1.486171 -1.203701 1.144708
v -0.444622 -0.675620 2.573661
v -0.443790 -0.917062 2.436593
v 1.409064 0.916043 1.290856
v 0.284892 0.220278 2.173040
v 0.887489 -0.966124 1.371841
v -0.550694 -1.617054 0.771597
v -0.384611 -1.688255 0.771597
v -1.486171 -0.962259 1.331694
v 0.208020 1.124630 1.029496
v 0.441700 1.139621 0.842510
v 0.285725 0.461719 2.035972
v -0.975163 0.767027 1.270684
v -0.890432 0.510796 1.457670
v 0.188202 1.245057 0.842510
v -0.609872 -0.675620 2.436594
v 0.935266 0.198214 1.541440
v 0.721407 -1.207566 1.371841
v 0.887489 -1.207566 1.184855
v -0.724350 0.752238 1.457670
v 0.451807 0.220278 2.035972
v 1.012277 0.198214 1.354454
vt 0.507221 0.777220
vt 0.477045 0.790139
vt 0.521510 0.933741
vt 0.474082 0.780267
vt 0.822509 0.208954
vt 0.663283 0.278299
vt 0.751222 0.360698
vt 0.831372 0.320062
vt 0.284044 0.418067
vt 0.317654 0.368987
vt 0.118338 0.178245
vt 0.296858 0.520697
vt 0.381031 0.514645
vt 0.391758 0.662489
vt 0.702786 0.597743
vt 0.809862 0.645495
vt 0.831662 0.542179
vt 0.774068 0.507046
vt 0.488567 0.519160
vt 0.497371 0.660037
vt 0.528045 0.327809
vt 0.576829 0.330419
vt 0.750608 0.124053
vt 0.142925 0.313143
vt 0.213061 0.435583
vt 0.002240 0.241895
vt 0.365003 0.280421
vt 0.329849 0.285890
vt 0.306313 0.167496
vt 0.282322 0.390330
vt 0.392192 0.380900
vt 0.233696 0.703360
vt 0.226055 0.658618
vt 0.097529 0.834088
vt 0.405815 0.699693
vt 0.315603 0.659462
vt 0.275772 0.527321
vt 0.494925 0.600064
vt 0.458480 0.654188
vt 0.631540 0.853843
vt 0.681676 0.705210
vt 0.682200 0.659078
vt 0.830592 0.762064
vt 0.561924 0.525175
vt 0.541336 0.385633
vt 0.416469 0.331908
vt 0.918535 0.598425
vt 0.995154 0.438352
vt 0.942698 0.429288
vt 0.904974 0.539840
vt 0.312222 0.413912
vt 0.970718 0.272724
vt 0.922845 0.356921
vt 0.256309 0.705434
vt 0.655509 0.440898
vt 0.720582 0.431094
vt 0.703668 0.658273
vt 0.560476 0.372685
vt 0.373483 0.266730
vt 0.455510 0.599734
vt 0.207735 0.439805
vn -0.0029 -0.0067 -1.0000
vn 0.9420 -0.3136 0.1194
vn 0.2705 0.6124 -0.7428
vn 0.7018 0.4827 -0.5239
vn 0.5816 -0.4001 0.7083
vn 0.2878 -0.5862 -0.7573
vn -0.6649 -0.4574 0.5906
vn 0.4695 0.6685 -0.5768
vn -0.5874 0.5835 0.5608
vn 0.5137 -0.6207 0.5923
vn 0.5611 0.3860 0.7322
vn 0.8049 0.3634 -0.4692
vn 0.3719 -0.8675 0.3303
vn 0.8869 -0.2829 0.3653
vn -0.7344 0.1878 0.6523
vn -0.7634 -0.5251 -0.3762
vn 0.4375 -0.5506 0.7109
vn -0.8385 0.1119 0.5333
vn -0.5845 0.4021 0.7047
vn -0.3519 0.7695 0.5329
vn -0.7996 -0.3464 -0.4905
vn -0.9316 0.1819 0.3147
vn 0.3289 -0.8552 0.4005
vn -0.2784 0.6294 -0.7255
vn -0.4731 -0.7743 -0.4202
vn -0.3151 0.2167 0.9240
vn 0.7801 0.1249 -0.6131
vn -0.2602 -0.1282 -0.9570
vn -0.3886 0.8876 0.2472
vn -0.8139 0.1420 -0.5633
vn 0.1973 -0.1357 0.9709
vn -0.7935 -0.5075 -0.3359
vn 0.0000 0.0000 -1.0000
vn -0.8811 0.3496 0.3186
vn 0.2178 0.5237 -0.8236
vn 0.7050 -0.3199 -0.6329
vn 0.9526 -0.1477 0.2660
vn -0.2204 0.9385 0.2657
vn -0.1908 -0.7241 -0.6628
vn 0.6254 -0.4048 -0.6671
vn 0.4538 -0.8713 0.1869
vn -0.2232 0.9369 0.2690
vn 0.9276 -0.1820 0.3263
vn 0.3157 0.7590 -0.5695
vn -0.9488 0.2100 0.2358
vn -0.8989 -0.4100 -0.1545
vn 0.4591 -0.3158 0.8304
vn -0.4856 0.8178 0.3088
vn -0.5587 -0.2752 -0.7824
vn -0.4426 0.3045 0.8434
vn -0.1989 -0.9640 -0.1767
vn -0.9701 0.1223 0.2095
vn 0.5990 -0.4903 0.6331
vn -0.7990 -0.5496 -0.2442
vn -0.6557 0.4806 0.5824
vn 0.9400 0.2089 -0.2698
vn 0.6130 -0.2628 0.7451
vn -0.8210 0.5097 0.2571
vn 0.1530 0.9799 -0.1278
vn 0.7935 -0.5688 0.2166
vn -0.2269 -0.5292 -0.8176
vn 0.8185 0.5630 -0.1147
vn 0.3204 -0.8632 0.3902
vn 0.9327 -0.2326 -0.2755
vn 0.5655 -0.7912 0.2329
usemtl None
s off
f 38/1/1 39/2/1 1/3/1
f 39/2/2 30/4/2 1/3/2
f 16/5/3 8/6/3 23/7/3 20/8/3
f 52/9/4 43/10/4 17/11/4
f 5/12/5 14/13/5 13/14/5
f 9/15/6 15/16/6 3/17/6 2/18/6
f 13/14/7 4/19/7 6/20/7
f 51/21/8 44/22/8 24/23/8
f 35/24/9 48/25/9 29/26/9
f 41/27/10 42/28/10 25/29/10
f 8/30/11 12/31/11 5/12/11
f 50/32/12 37/33/12 18/34/12
f 15/35/13 9/36/13 13/14/13
f 10/37/14 5/12/14 9/36/14
f 30/4/15 38/1/15 1/3/15
f 47/38/16 34/39/16 28/40/16
f 32/41/17 40/42/17 21/43/17
f 11/44/18 4/19/18 7/45/18
f 14/13/19 12/31/19 4/19/19
f 16/46/20 7/45/20 12/31/20
f 6/47/21 11/48/21 26/49/21 27/50/21
f 43/10/22 36/51/22 17/11/22
f 36/51/23 52/9/23 17/11/23
f 7/52/24 16/5/24 20/8/24 19/53/24
f 49/54/25 50/32/25 18/34/25
f 37/33/26 49/54/26 18/34/26
f 8/6/27 10/55/27 22/56/27 23/7/27
f 31/57/28 32/41/28 21/43/28
f 40/42/29 31/57/29 21/43/29
f 11/48/30 7/52/30 19/53/30 26/49/30
f 45/58/31 51/21/31 24/23/31
f 44/22/32 45/58/32 24/23/32
f 27/50/33 26/49/33 19/53/33 20/8/33 23/7/33 22/56/33 2/18/33 3/17/33
f 46/59/34 41/27/34 25/29/34
f 42/28/35 46/59/35 25/29/35
f 10/55/36 9/15/36 2/18/36 22/56/36
f 34/39/37 33/60/37 28/40/37
f 33/60/38 47/38/38 28/40/38
f 15/16/39 6/47/39 27/50/39 3/17/39
f 53/61/40 35/24/40 29/26/40
f 48/25/41 53/61/41 29/26/41
f 14/13/42 4/19/42 47/38/42 33/60/42
f 13/14/43 14/13/43 33/60/43 34/39/43
f 8/30/44 16/46/44 46/59/44 42/28/44
f 16/46/45 12/31/45 41/27/45 46/59/45
f 7/45/46 4/19/46 45/58/46 44/22/46
f 4/19/47 12/31/47 51/21/47 45/58/47
f 4/19/48 11/44/48 31/57/48 40/42/48
f 11/44/49 6/20/49 32/41/49 31/57/49
f 5/12/50 13/14/50 49/54/50 37/33/50
f 13/14/51 9/36/51 50/32/51 49/54/51
f 12/31/52 14/13/52 36/51/52 43/10/52
f 6/20/53 4/19/53 40/42/53 32/41/53
f 4/19/54 13/14/54 34/39/54 47/38/54
f 13/14/55 6/20/55 38/1/55 30/4/55
f 9/36/56 5/12/56 37/33/56 50/32/56
f 12/31/57 8/30/57 42/28/57 41/27/57
f 8/30/58 5/12/58 48/25/58 35/24/58
f 12/31/59 7/45/59 44/22/59 51/21/59
f 15/35/60 13/14/60 30/4/60 39/2/60
f 6/20/61 15/35/61 39/2/61 38/1/61
f 5/12/62 12/31/62 43/10/62 52/9/62
f 14/13/63 5/12/63 52/9/63 36/51/63
f 10/37/64 8/30/64 35/24/64 53/61/64
f 5/12/65 10/37/65 53/61/65 48/25/65
