# Blender v2.92.0 OBJ File: 'rocket.blend'
# www.blender.org
mtllib missile2.mtl
o Cube_Cube.001
v -0.072764 -0.065121 -0.256871
v -0.061889 -0.055379 0.238917
v -0.072641 0.067866 -0.256871
v -0.061785 0.057815 0.238917
v 0.070794 -0.071618 -0.256871
v 0.060088 -0.060909 0.238917
v 0.070421 0.072183 -0.256871
v 0.059771 0.061489 0.238917
v -0.100000 0.000000 -0.256871
v -0.046012 -0.040951 0.000000
v -0.085031 0.000050 0.238917
v -0.045935 0.042964 0.000000
v 0.000000 0.100000 -0.256871
v -0.000064 0.085167 0.238917
v 0.044179 0.045688 0.000000
v 0.100000 0.000000 -0.256871
v 0.084903 0.000050 0.238917
v 0.044414 -0.045050 0.000000
v 0.000000 -0.100000 -0.256871
v -0.000064 -0.085067 0.238917
v -0.050536 0.000178 0.524875
v -0.059248 0.000151 -0.450857
v -0.000179 -0.062959 0.000000
v 0.062810 0.000141 0.000000
v -0.000179 0.063241 0.000000
v -0.063168 0.000141 0.000000
v -0.085031 0.000050 0.420606
v -0.061785 0.057815 0.420606
v -0.000064 0.085167 0.420606
v 0.059771 0.061489 0.420606
v 0.084903 0.000050 0.420606
v 0.060088 -0.060909 0.420606
v -0.000064 -0.085067 0.420606
v -0.061889 -0.055379 0.420606
v -0.016259 0.000304 0.589356
v -0.036771 0.034381 0.524875
v -0.000225 0.050577 0.524875
v 0.035204 0.036557 0.524875
v 0.050085 0.000178 0.524875
v 0.035392 -0.035917 0.524875
v -0.000225 -0.050222 0.524875
v -0.036833 -0.032643 0.524875
v -0.100000 0.000000 -0.437997
v -0.011916 0.011096 0.589356
v -0.000385 0.016206 0.589356
v 0.010793 0.011783 0.589356
v 0.015488 0.000304 0.589356
v 0.010852 -0.011084 0.589356
v -0.000385 -0.015597 0.589356
v -0.011936 -0.010051 0.589356
v -0.000378 0.000299 0.589356
v -0.072764 -0.065121 -0.437997
v 0.000000 0.100000 -0.437997
v -0.072641 0.067866 -0.437997
v 0.100000 0.000000 -0.437997
v 0.070421 0.072183 -0.437997
v 0.000000 -0.100000 -0.437997
v 0.070794 -0.071618 -0.437997
v -0.095601 0.000016 -0.541616
v -0.043163 -0.038308 -0.450857
v -0.000191 0.059208 -0.450857
v -0.043090 0.040230 -0.450857
v 0.058867 0.000151 -0.450857
v 0.041398 0.042780 -0.450857
v -0.000191 -0.058907 -0.450857
v 0.041619 -0.042145 -0.450857
v -0.069568 -0.062227 -0.541616
v -0.000021 0.095597 -0.541616
v -0.069451 0.064883 -0.541616
v 0.095560 0.000016 -0.541616
v 0.067288 0.069009 -0.541616
v -0.000021 -0.095564 -0.541616
v 0.067645 -0.068437 -0.541616
v -0.000021 0.000016 -0.541616
v -0.161323 0.000050 0.237515
v -0.000064 0.161593 0.237515
v 0.161196 0.000050 0.237515
v -0.000064 -0.161493 0.237515
v -0.161323 0.000050 0.313906
v -0.000064 0.161593 0.313906
v 0.161196 0.000050 0.313906
v -0.000064 -0.161493 0.313906
v -0.263827 0.000000 -0.425857
v 0.000000 0.263827 -0.425857
v 0.263827 0.000000 -0.425857
v 0.000000 -0.263827 -0.425857
v -0.263827 0.000000 -0.501440
v 0.000000 0.263827 -0.501440
v 0.263827 0.000000 -0.501440
v 0.000000 -0.263827 -0.501440
vt 0.466354 0.577131
vt 0.466354 0.348917
vt 0.537326 0.348917
vt 0.537326 0.577131
vt 0.349785 0.577139
vt 0.349785 0.346535
vt 0.417650 0.343771
vt 0.417650 0.574376
vt 0.070030 0.577007
vt 0.070030 0.346274
vt 0.139475 0.343645
vt 0.139475 0.574378
vt 0.207274 0.577625
vt 0.207274 0.347449
vt 0.278842 0.343787
vt 0.278842 0.573963
vt 0.417650 0.814145
vt 0.466354 0.822495
vt 0.466354 0.995506
vt 0.417650 0.987156
vt 0.207274 0.172407
vt 0.278842 0.168745
vt 0.466354 0.175367
vt 0.537326 0.175367
vt 0.278842 0.343577
vt 0.278842 0.168209
vt 0.349785 0.171167
vt 0.070030 0.170808
vt 0.139475 0.168179
vt 0.207274 0.825099
vt 0.278842 0.821437
vt 0.278842 0.995936
vt 0.207274 0.999598
vt 0.278842 0.822114
vt 0.349785 0.825072
vt 0.349785 0.999895
vt 0.278842 0.996937
vt 0.070030 0.825079
vt 0.139475 0.822450
vt 0.139475 0.997371
vt 0.070030 1.000000
vt 0.139475 0.821677
vt 0.139475 0.574204
vt 0.139475 0.344028
vt 0.000000 0.822425
vt 0.000000 0.574352
vt 0.000000 0.343620
vt 0.417650 0.822309
vt 0.278842 0.574181
vt 0.537326 0.822495
vt 0.417650 0.568781
vt 0.417650 0.340567
vt 0.139475 0.168985
vt 0.168516 0.065339
vt 0.208661 0.067365
vt 0.481212 0.069441
vt 0.523236 0.069441
vt 0.069859 0.066428
vt 0.110979 0.064871
vt 0.417650 0.167017
vt 0.452373 0.064497
vt 0.000000 0.168154
vt 0.417650 0.168404
vt 0.495975 0.001560
vt 0.509234 0.001560
vt 0.069689 0.000496
vt 0.082663 0.000005
vt 0.486876 0.000000
vt 0.028393 0.064856
vt 0.056606 0.000000
vt 0.306967 0.064894
vt 0.348973 0.066646
vt 0.251038 0.065197
vt 0.389158 0.065010
vt 0.641183 0.577022
vt 0.624415 0.583893
vt 0.624508 0.571102
vt 0.634312 0.560255
vt 0.657950 0.570151
vt 0.648132 0.560150
vt 0.657950 0.584286
vt 0.648053 0.593789
vt 0.633666 0.593392
vt 0.197374 0.000045
vt 0.210040 0.000684
vt 0.334914 0.000000
vt 0.348168 0.000553
vt 0.223410 0.000000
vt 0.360846 0.000036
vt 0.786302 0.180061
vt 0.712327 0.179498
vt 0.727311 0.142566
vt 0.770999 0.142898
vt 0.785881 0.000000
vt 0.838853 0.050864
vt 0.802034 0.066598
vt 0.770750 0.036559
vt 0.659850 0.121435
vt 0.696319 0.108275
vt 0.659356 0.052973
vt 0.696027 0.067843
vt 0.000000 0.997346
vt 0.417650 0.997132
vt 0.537326 0.995506
vt 0.139475 0.996176
vt 0.755328 0.864777
vt 0.752411 0.893814
vt 0.659348 0.886971
vt 0.664070 0.839977
vt 0.931361 0.158615
vt 0.929801 0.199973
vt 0.838853 0.200142
vt 0.841378 0.133207
vt 0.755328 0.935627
vt 0.664070 0.954642
vt 0.931361 0.240985
vt 0.841378 0.266518
vt 0.708869 0.002125
vt 0.725269 0.037814
vt 0.838853 0.126526
vt 0.802034 0.111282
vt 0.867020 0.645587
vt 0.952802 0.680738
vt 0.902574 0.731908
vt 0.831868 0.731369
vt 0.781238 0.610436
vt 0.781711 0.675872
vt 0.828563 0.561836
vt 0.902171 0.559804
vt 0.952802 0.608421
vt 0.930398 0.066197
vt 0.932487 0.108467
vt 0.842235 0.133207
vt 0.838853 0.064797
vt 0.959363 0.798865
vt 0.961051 0.838942
vt 0.871020 0.864581
vt 0.868288 0.799719
vt 0.932487 0.026160
vt 0.842235 0.000000
vt 0.961051 0.756966
vt 0.871020 0.731908
vt 0.623590 0.737943
vt 0.620647 0.901897
vt 0.535511 0.815837
vt 0.534835 0.736355
vt 0.622129 0.738035
vt 0.619815 0.900587
vt 0.535099 0.814924
vt 0.535190 0.736366
vt 0.624307 0.737623
vt 0.620452 0.900489
vt 0.535648 0.815953
vt 0.535017 0.736444
vt 0.620471 0.903648
vt 0.623594 0.737747
vt 0.534835 0.736355
vt 0.535574 0.815850
vt 0.537326 0.432922
vt 0.659356 0.561059
vt 0.656895 0.333583
vt 0.608433 0.280066
vt 0.533849 0.439655
vt 0.655929 0.563057
vt 0.653468 0.337791
vt 0.604985 0.279275
vt 0.655738 0.559448
vt 0.533849 0.434123
vt 0.599953 0.279275
vt 0.655738 0.331572
vt 0.659348 0.560150
vt 0.537326 0.434818
vt 0.608429 0.280066
vt 0.659348 0.332366
vn -0.9244 0.3720 -0.0844
vn 0.3666 0.9265 -0.0852
vn 0.9228 -0.3757 -0.0855
vn -0.4314 -0.8984 -0.0829
vn -0.9226 -0.3859 0.0000
vn -0.4329 -0.9015 0.0000
vn -0.9277 0.3733 0.0000
vn -0.4051 0.9143 0.0000
vn 0.9262 -0.3770 0.0000
vn -0.4322 -0.9018 0.0000
vn -0.4046 0.9145 0.0000
vn 0.9260 -0.3776 0.0000
vn -0.4289 -0.8941 0.1287
vn 0.3690 -0.9199 0.1330
vn 0.3713 -0.9245 -0.0857
vn 0.9178 -0.3740 0.1330
vn 0.9173 0.3756 0.1325
vn 0.9222 0.3772 -0.0851
vn 0.3644 0.9218 0.1322
vn -0.4014 0.9067 0.1296
vn -0.4037 0.9111 -0.0834
vn -0.9195 0.3704 0.1316
vn -0.9147 -0.3823 0.1313
vn -0.9195 -0.3839 -0.0843
vn 0.3559 -0.8862 0.2967
vn -0.8870 0.3569 0.2930
vn 0.8847 -0.3602 0.2959
vn -0.8825 -0.3684 0.2924
vn 0.9256 0.3786 0.0000
vn 0.3679 0.9298 0.0000
vn -0.9228 -0.3853 0.0000
vn 0.3727 -0.9280 0.0000
vn -0.8323 0.3349 0.4418
vn 0.8292 -0.3375 0.4456
vn -0.8282 -0.3458 0.4410
vn 0.8292 0.3392 0.4442
vn -0.3878 0.8751 0.2897
vn -0.4145 -0.8633 0.2879
vn 0.3515 0.8884 0.2953
vn 0.8844 0.3618 0.2949
vn -0.0000 0.0000 1.0000
vn 0.3334 -0.8303 0.4467
vn -0.3643 0.8222 0.4373
vn -0.3898 -0.8117 0.4349
vn 0.3296 0.8328 0.4447
vn 0.1187 -0.2961 -0.9478
vn 0.1177 0.2981 -0.9473
vn -0.1420 -0.2962 -0.9445
vn -0.2982 -0.1247 -0.9463
vn 0.9253 0.3792 0.0000
vn 0.3674 0.9301 0.0000
vn -0.9275 0.3739 0.0000
vn 0.3721 -0.9282 0.0000
vn -0.8652 -0.3619 0.3471
vn 0.8668 0.3552 0.3499
vn -0.8696 0.3506 0.3478
vn 0.8670 -0.3536 0.3511
vn -0.1321 0.2986 -0.9452
vn 0.2958 -0.1206 -0.9476
vn -0.2991 0.1206 -0.9466
vn 0.2966 0.1215 -0.9472
vn 0.0000 0.0000 -1.0000
vn -0.4063 -0.8475 0.3416
vn 0.3442 0.8713 0.3500
vn 0.3484 -0.8689 0.3516
vn -0.3799 0.8588 0.3436
vn 0.0000 1.0000 0.0000
vn 0.0000 -1.0000 0.0000
vn 1.0000 0.0000 0.0000
usemtl None
s off
f 26/1/1 11/2/1 4/3/1 12/4/1
f 25/5/2 14/6/2 8/7/2 15/8/2
f 24/9/3 17/10/3 6/11/3 18/12/3
f 23/13/4 20/14/4 2/15/4 10/16/4
f 1/17/5 9/18/5 43/19/5 52/20/5
f 2/15/6 20/14/6 33/21/6 34/22/6
f 4/3/7 11/2/7 27/23/7 28/24/7
f 14/6/8 4/25/8 28/26/8 29/27/8
f 6/11/9 17/10/9 31/28/9 32/29/9
f 19/30/10 1/31/10 52/32/10 57/33/10
f 3/34/11 13/35/11 53/36/11 54/37/11
f 16/38/12 5/39/12 58/40/12 55/41/12
f 19/30/13 23/13/13 10/16/13 1/31/13
f 5/42/14 18/43/14 23/13/14 19/30/14
f 18/43/15 6/44/15 20/14/15 23/13/15
f 16/38/16 24/9/16 18/12/16 5/39/16
f 7/45/17 15/46/17 24/9/17 16/38/17
f 15/46/18 8/47/18 17/10/18 24/9/18
f 13/35/19 25/5/19 15/8/19 7/48/19
f 3/34/20 12/49/20 25/5/20 13/35/20
f 12/49/21 4/25/21 14/6/21 25/5/21
f 9/18/22 26/1/22 12/4/22 3/50/22
f 1/17/23 10/51/23 26/1/23 9/18/23
f 10/51/24 2/52/24 11/2/24 26/1/24
f 33/21/25 32/53/25 40/54/25 41/55/25
f 28/24/26 27/23/26 21/56/26 36/57/26
f 32/29/27 31/28/27 39/58/27 40/59/27
f 27/23/28 34/60/28 42/61/28 21/56/28
f 17/10/29 8/47/29 30/62/29 31/28/29
f 8/7/30 14/6/30 29/27/30 30/63/30
f 11/2/31 2/52/31 34/60/31 27/23/31
f 20/14/32 6/44/32 32/53/32 33/21/32
f 36/57/33 21/56/33 35/64/33 44/65/33
f 40/59/34 39/58/34 47/66/34 48/67/34
f 21/56/35 42/61/35 50/68/35 35/64/35
f 39/58/36 38/69/36 46/70/36 47/66/36
f 29/27/37 28/26/37 36/71/37 37/72/37
f 34/22/38 33/21/38 41/55/38 42/73/38
f 30/63/39 29/27/39 37/72/39 38/74/39
f 31/28/40 30/62/40 38/69/40 39/58/40
f 51/75/41 35/76/41 50/77/41 49/78/41
f 47/79/41 51/75/41 49/78/41 48/80/41
f 46/81/41 45/82/41 51/75/41 47/79/41
f 45/82/41 44/83/41 35/76/41 51/75/41
f 41/55/42 40/54/42 48/84/42 49/85/42
f 37/72/43 36/71/43 44/86/43 45/87/43
f 42/73/44 41/55/44 49/85/44 50/88/44
f 38/74/45 37/72/45 45/87/45 46/89/45
f 58/90/46 57/91/46 65/92/46 66/93/46
f 53/94/47 56/95/47 64/96/47 61/97/47
f 57/91/48 52/98/48 60/99/48 65/92/48
f 52/98/49 43/100/49 22/101/49 60/99/49
f 7/45/50 16/38/50 55/41/50 56/102/50
f 13/35/51 7/48/51 56/103/51 53/36/51
f 9/18/52 3/50/52 54/104/52 43/19/52
f 5/42/53 19/30/53 57/33/53 58/105/53
f 60/106/54 22/107/54 59/108/54 67/109/54
f 64/110/55 63/111/55 70/112/55 71/113/55
f 22/107/56 62/114/56 69/115/56 59/108/56
f 63/111/57 66/116/57 73/117/57 70/112/57
f 54/118/58 53/94/58 61/97/58 62/119/58
f 55/120/59 58/90/59 66/93/59 63/121/59
f 43/100/60 54/118/60 62/119/60 22/101/60
f 56/95/61 55/120/61 63/121/61 64/96/61
f 74/122/62 70/123/62 73/124/62 72/125/62
f 59/126/62 74/122/62 72/125/62 67/127/62
f 69/128/62 68/129/62 74/122/62 59/126/62
f 68/129/62 71/130/62 70/123/62 74/122/62
f 65/131/63 60/132/63 67/133/63 72/134/63
f 61/135/64 64/136/64 71/137/64 68/138/64
f 66/139/65 65/131/65 72/134/65 73/140/65
f 62/141/66 61/135/66 68/138/66 69/142/66
f 17/143/67 31/144/67 81/145/67 77/146/67
f 11/147/68 27/148/68 79/149/68 75/150/68
f 20/151/69 33/152/69 82/153/69 78/154/69
f 29/155/69 14/156/69 76/157/69 80/158/69
f 57/159/69 19/160/69 86/161/69 90/162/69
f 55/163/67 16/164/67 85/165/67 89/166/67
f 9/167/67 43/168/67 87/169/67 83/170/67
f 13/171/69 53/172/69 88/173/69 84/174/69
