# Blender v2.92.0 OBJ File: 'rocket.blend'
# www.blender.org
mtllib smallblob.mtl
o Cube.003_Cube.004
v -0.191108 -0.011691 0.024874
v -0.205190 -0.121070 0.127826
v -0.269627 0.101515 0.174311
v -0.245548 -0.018280 0.302368
v -0.065322 0.010006 0.095035
v -0.022239 -0.119934 0.197564
v -0.104527 0.132559 0.168674
v -0.101030 0.042758 0.297849
v -0.243313 0.051040 0.088505
v -0.216134 -0.070606 0.073572
v -0.241592 -0.090672 0.229624
v -0.268978 0.048057 0.227546
v -0.164747 0.141157 0.175645
v -0.171704 -0.003494 0.316316
v -0.076150 0.086667 0.263968
v -0.050485 0.089651 0.124927
v -0.048764 -0.052062 0.266046
v -0.024523 -0.045435 0.130681
v -0.120373 0.002473 0.038234
v -0.118653 -0.139240 0.179354
v -0.144948 -0.090301 0.266690
v -0.161087 0.128181 0.126633
v -0.113142 -0.084686 0.092345
v -0.018127 0.025101 0.201436
v -0.182143 0.091873 0.270487
v -0.276444 -0.026622 0.152644
v 0.085036 -0.100000 -0.030865
v 0.069092 -0.100000 0.119158
v 0.058402 0.100000 -0.006311
v 0.081811 0.100000 0.169135
v 0.223277 -0.070591 0.004349
v 0.258402 -0.100000 0.169135
v 0.222548 0.073417 -0.030865
v 0.232107 0.100000 0.123939
v 0.058402 0.000000 -0.030865
v 0.058402 -0.100000 0.045026
v 0.058402 0.000000 0.169135
v 0.058402 0.100000 0.069135
v 0.167416 0.100000 -0.032557
v 0.158402 0.100000 0.169135
v 0.258402 0.100000 0.069135
v 0.258402 0.000000 -0.030865
v 0.258402 0.000000 0.169135
v 0.258402 -0.094632 0.069135
v 0.158402 -0.100000 -0.030865
v 0.158402 -0.100000 0.169135
v 0.158402 0.000000 0.195857
v 0.159514 0.056658 -0.057914
v 0.158402 -0.124019 0.069135
v 0.291071 0.000000 0.069135
v 0.158402 0.136113 0.069135
v 0.023146 0.000000 0.069135
v -0.091712 -0.211007 -0.148699
v -0.129300 -0.090966 -0.065400
v -0.160653 -0.093630 -0.299637
v -0.163854 0.056458 -0.205869
v 0.031256 -0.134874 -0.165963
v 0.046791 -0.006058 -0.054526
v 0.007300 -0.089720 -0.305125
v -0.011529 0.053876 -0.243578
v -0.137277 -0.165517 -0.229717
v -0.128722 -0.154569 -0.104952
v -0.166788 -0.000582 -0.120512
v -0.171785 -0.031412 -0.258442
v -0.051131 -0.090113 -0.323420
v -0.089628 0.074136 -0.212510
v 0.022040 0.014749 -0.275782
v 0.056549 -0.119355 -0.247058
v 0.027038 0.045579 -0.137853
v 0.060486 -0.085754 -0.113601
v -0.020612 -0.194074 -0.155060
v -0.050122 -0.029139 -0.045856
v -0.073818 0.044535 -0.114592
v -0.046486 -0.135229 -0.300464
v -0.030622 -0.124009 -0.080443
v 0.073453 -0.029348 -0.195288
v -0.082006 0.010316 -0.297204
v -0.186200 -0.091187 -0.172058
v -0.147900 0.130445 -0.105945
v -0.163844 0.130445 0.044079
v -0.174534 0.330445 -0.081391
v -0.151125 0.330445 0.094055
v -0.009659 0.159854 -0.070731
v 0.025466 0.130445 0.094055
v -0.010388 0.303862 -0.105945
v -0.000829 0.330445 0.048860
v -0.174534 0.230445 -0.105945
v -0.174534 0.130445 -0.030054
v -0.174534 0.230445 0.094055
v -0.174534 0.330445 -0.005945
v -0.065520 0.330445 -0.107637
v -0.074534 0.330445 0.094055
v 0.025466 0.330445 -0.005945
v 0.025466 0.230445 -0.105945
v 0.025466 0.230445 0.094055
v 0.025466 0.135813 -0.005945
v -0.074534 0.130445 -0.105945
v -0.074534 0.130445 0.094055
v -0.074534 0.230445 0.120777
v -0.073422 0.287102 -0.132994
v -0.074534 0.106426 -0.005945
v 0.058134 0.230445 -0.005945
v -0.074534 0.366558 -0.005945
v -0.209791 0.230445 -0.005945
v 0.031270 -0.224251 -0.100582
v 0.024780 -0.324088 -0.023771
v 0.054966 -0.141731 0.046063
v 0.081245 -0.262551 0.127367
v 0.150574 -0.247214 -0.092333
v 0.179351 -0.376159 -0.037631
v 0.180255 -0.153836 -0.016423
v 0.200369 -0.246538 0.074737
v 0.031873 -0.173408 -0.030581
v 0.013033 -0.272960 -0.057963
v 0.040340 -0.308557 0.067509
v 0.058160 -0.192713 0.083066
v 0.141647 -0.134532 0.011095
v 0.142925 -0.269954 0.111842
v 0.219224 -0.212045 0.042528
v 0.192938 -0.192740 -0.071119
v 0.201404 -0.327889 0.026971
v 0.176302 -0.305993 -0.083208
v 0.090353 -0.231343 -0.115453
v 0.098819 -0.366492 -0.017362
v 0.122003 -0.336280 0.060346
v 0.124652 -0.137555 -0.027740
v 0.089289 -0.310512 -0.081924
v 0.223480 -0.263472 -0.028696
v 0.146656 -0.184948 0.086127
v 0.007714 -0.237574 0.025610
vt 0.500000 0.125000
vt 0.625000 0.125000
vt 0.625000 0.250000
vt 0.500000 0.250000
vt 0.500000 0.375000
vt 0.625000 0.375000
vt 0.625000 0.500000
vt 0.500000 0.500000
vt 0.500000 0.625000
vt 0.625000 0.625000
vt 0.625000 0.750000
vt 0.500000 0.750000
vt 0.500000 0.875000
vt 0.625000 0.875000
vt 0.625000 1.000000
vt 0.500000 1.000000
vt 0.250000 0.625000
vt 0.375000 0.625000
vt 0.375000 0.750000
vt 0.250000 0.750000
vt 0.750000 0.625000
vt 0.875000 0.625000
vt 0.875000 0.750000
vt 0.750000 0.750000
vt 0.750000 0.500000
vt 0.875000 0.500000
vt 0.125000 0.625000
vt 0.125000 0.750000
vt 0.125000 0.500000
vt 0.250000 0.500000
vt 0.375000 0.500000
vt 0.375000 0.875000
vt 0.375000 1.000000
vt 0.375000 0.375000
vt 0.375000 0.250000
vt 0.375000 0.125000
vt 0.375000 0.000000
vt 0.500000 0.000000
vt 0.625000 0.000000
vt 0.500000 0.125000
vt 0.625000 0.125000
vt 0.625000 0.250000
vt 0.500000 0.250000
vt 0.500000 0.375000
vt 0.625000 0.375000
vt 0.625000 0.500000
vt 0.500000 0.500000
vt 0.500000 0.625000
vt 0.625000 0.625000
vt 0.625000 0.750000
vt 0.500000 0.750000
vt 0.500000 0.875000
vt 0.625000 0.875000
vt 0.625000 1.000000
vt 0.500000 1.000000
vt 0.250000 0.625000
vt 0.375000 0.625000
vt 0.375000 0.750000
vt 0.250000 0.750000
vt 0.750000 0.625000
vt 0.875000 0.625000
vt 0.875000 0.750000
vt 0.750000 0.750000
vt 0.750000 0.500000
vt 0.875000 0.500000
vt 0.125000 0.625000
vt 0.125000 0.750000
vt 0.125000 0.500000
vt 0.250000 0.500000
vt 0.375000 0.500000
vt 0.375000 0.875000
vt 0.375000 1.000000
vt 0.375000 0.375000
vt 0.375000 0.250000
vt 0.375000 0.125000
vt 0.375000 0.000000
vt 0.500000 0.000000
vt 0.625000 0.000000
vt 0.500000 0.125000
vt 0.625000 0.125000
vt 0.625000 0.250000
vt 0.500000 0.250000
vt 0.500000 0.375000
vt 0.625000 0.375000
vt 0.625000 0.500000
vt 0.500000 0.500000
vt 0.500000 0.625000
vt 0.625000 0.625000
vt 0.625000 0.750000
vt 0.500000 0.750000
vt 0.500000 0.875000
vt 0.625000 0.875000
vt 0.625000 1.000000
vt 0.500000 1.000000
vt 0.250000 0.625000
vt 0.375000 0.625000
vt 0.375000 0.750000
vt 0.250000 0.750000
vt 0.750000 0.625000
vt 0.875000 0.625000
vt 0.875000 0.750000
vt 0.750000 0.750000
vt 0.750000 0.500000
vt 0.875000 0.500000
vt 0.125000 0.625000
vt 0.125000 0.750000
vt 0.125000 0.500000
vt 0.250000 0.500000
vt 0.375000 0.500000
vt 0.375000 0.875000
vt 0.375000 1.000000
vt 0.375000 0.375000
vt 0.375000 0.250000
vt 0.375000 0.125000
vt 0.375000 0.000000
vt 0.500000 0.000000
vt 0.625000 0.000000
vt 0.500000 0.125000
vt 0.625000 0.125000
vt 0.625000 0.250000
vt 0.500000 0.250000
vt 0.500000 0.375000
vt 0.625000 0.375000
vt 0.625000 0.500000
vt 0.500000 0.500000
vt 0.500000 0.625000
vt 0.625000 0.625000
vt 0.625000 0.750000
vt 0.500000 0.750000
vt 0.500000 0.875000
vt 0.625000 0.875000
vt 0.625000 1.000000
vt 0.500000 1.000000
vt 0.250000 0.625000
vt 0.375000 0.625000
vt 0.375000 0.750000
vt 0.250000 0.750000
vt 0.750000 0.625000
vt 0.875000 0.625000
vt 0.875000 0.750000
vt 0.750000 0.750000
vt 0.750000 0.500000
vt 0.875000 0.500000
vt 0.125000 0.625000
vt 0.125000 0.750000
vt 0.125000 0.500000
vt 0.250000 0.500000
vt 0.375000 0.500000
vt 0.375000 0.875000
vt 0.375000 1.000000
vt 0.375000 0.375000
vt 0.375000 0.250000
vt 0.375000 0.125000
vt 0.375000 0.000000
vt 0.500000 0.000000
vt 0.625000 0.000000
vt 0.500000 0.125000
vt 0.625000 0.125000
vt 0.625000 0.250000
vt 0.500000 0.250000
vt 0.500000 0.375000
vt 0.625000 0.375000
vt 0.625000 0.500000
vt 0.500000 0.500000
vt 0.500000 0.625000
vt 0.625000 0.625000
vt 0.625000 0.750000
vt 0.500000 0.750000
vt 0.500000 0.875000
vt 0.625000 0.875000
vt 0.625000 1.000000
vt 0.500000 1.000000
vt 0.250000 0.625000
vt 0.375000 0.625000
vt 0.375000 0.750000
vt 0.250000 0.750000
vt 0.750000 0.625000
vt 0.875000 0.625000
vt 0.875000 0.750000
vt 0.750000 0.750000
vt 0.750000 0.500000
vt 0.875000 0.500000
vt 0.125000 0.625000
vt 0.125000 0.750000
vt 0.125000 0.500000
vt 0.250000 0.500000
vt 0.375000 0.500000
vt 0.375000 0.875000
vt 0.375000 1.000000
vt 0.375000 0.375000
vt 0.375000 0.250000
vt 0.375000 0.125000
vt 0.375000 0.000000
vt 0.500000 0.000000
vt 0.625000 0.000000
vn -0.9601 -0.1864 0.2085
vn 0.0075 0.4961 0.8682
vn 0.9841 -0.0326 0.1746
vn 0.0855 -0.7980 -0.5965
vn 0.3561 0.4997 -0.7896
vn -0.2382 -0.9213 0.3075
vn 0.1699 -0.7600 0.6273
vn 0.2571 -0.3000 0.9186
vn -0.1735 -0.6210 0.7644
vn -0.0892 0.5984 -0.7962
vn -0.3976 0.7930 -0.4616
vn 0.2255 0.8901 -0.3960
vn 0.1483 -0.5812 -0.8001
vn 0.5916 -0.2773 -0.7571
vn 0.4017 -0.7058 -0.5835
vn 0.8949 0.1541 -0.4188
vn 0.7472 0.6470 0.1518
vn 0.7628 0.1600 0.6266
vn 0.1097 0.8913 0.4398
vn -0.4411 0.7600 0.4774
vn -0.4425 0.4749 0.7607
vn -0.9804 0.0825 -0.1792
vn -0.8199 -0.1143 -0.5610
vn -0.8066 -0.5552 -0.2030
vn -0.9237 0.2709 0.2709
vn 0.2611 0.9293 0.2611
vn 0.9743 -0.1635 0.1548
vn -0.1803 -0.9728 0.1453
vn 0.2960 -0.2960 -0.9082
vn -0.3515 -0.3515 0.8677
vn 0.1313 -0.1313 0.9826
vn 0.3573 0.3573 0.8630
vn -0.1480 0.1480 0.9779
vn -0.1155 -0.1155 -0.9866
vn -0.3143 0.3276 -0.8910
vn 0.3171 0.2732 -0.9082
vn -0.1150 -0.9818 -0.1515
vn 0.3790 -0.8635 -0.3326
vn 0.1448 -0.9852 0.0919
vn 0.8163 -0.4196 -0.3970
vn 0.8730 0.3449 -0.3449
vn 0.8804 0.3353 0.3353
vn 0.3580 0.8771 -0.3203
vn -0.1916 0.9597 -0.2054
vn -0.1964 0.9606 0.1964
vn -0.9619 0.1933 -0.1933
vn -0.9147 -0.2443 -0.3219
vn -0.9218 -0.3019 0.2432
vn -0.9887 0.1502 0.0023
vn 0.0310 0.7555 -0.6544
vn 0.9537 0.2681 0.1363
vn -0.0040 -0.4242 0.9056
vn 0.4794 -0.8335 -0.2749
vn -0.3993 0.4529 0.7972
vn 0.0082 0.7728 0.6345
vn 0.1483 0.9786 0.1425
vn -0.3169 0.8487 0.4235
vn 0.0565 -0.8999 -0.4325
vn -0.2378 -0.6382 -0.7322
vn 0.3874 -0.5347 -0.7510
vn 0.1049 -0.6584 0.7453
vn 0.5870 -0.6328 0.5051
vn 0.3213 -0.3995 0.8585
vn 0.9326 -0.3557 0.0620
vn 0.8288 0.0951 -0.5515
vn 0.7375 0.6529 -0.1727
vn 0.2209 0.2714 -0.9368
vn -0.3450 0.2820 -0.8953
vn -0.4091 0.6127 -0.6762
vn -0.9419 -0.2816 -0.1832
vn -0.7908 -0.6027 0.1071
vn -0.8696 -0.1681 0.4643
vn -0.8045 0.0442 0.5922
vn 0.5099 0.2953 0.8080
vn 0.9032 -0.3322 -0.2718
vn -0.4229 -0.6582 -0.6228
vn 0.1611 0.5289 -0.8333
vn -0.3874 -0.8636 0.3226
vn 0.1416 -0.8852 0.4432
vn 0.4821 -0.5325 0.6957
vn -0.0540 -0.6878 0.7239
vn -0.1916 0.7441 -0.6400
vn -0.2615 0.9456 -0.1934
vn 0.3315 0.8551 -0.3986
vn -0.3774 -0.4311 -0.8196
vn 0.1204 -0.2735 -0.9543
vn -0.1158 -0.6598 -0.7425
vn 0.6555 -0.0157 -0.7550
vn 0.9144 0.3770 -0.1475
vn 0.9535 -0.1792 0.2424
vn 0.5600 0.7239 0.4031
vn 0.0582 0.7423 0.6676
vn 0.0741 0.4186 0.9052
vn -0.8854 0.3791 0.2692
vn -0.9618 0.2249 -0.1558
vn -0.9552 -0.2643 0.1329
usemtl None
s off
f 26/1/1 11/2/1 4/3/1 12/4/1
f 25/5/2 14/6/2 8/7/2 15/8/2
f 24/9/3 17/10/3 6/11/3 18/12/3
f 23/13/4 20/14/4 2/15/4 10/16/4
f 22/17/5 16/18/5 5/19/5 19/20/5
f 21/21/6 11/22/6 2/23/6 20/24/6
f 17/10/7 21/21/7 20/24/7 6/11/7
f 8/7/8 14/25/8 21/21/8 17/10/8
f 14/25/9 4/26/9 11/22/9 21/21/9
f 9/27/10 22/17/10 19/20/10 1/28/10
f 3/29/11 13/30/11 22/17/11 9/27/11
f 13/30/12 7/31/12 16/18/12 22/17/12
f 19/32/13 23/13/13 10/16/13 1/33/13
f 5/19/14 18/12/14 23/13/14 19/32/14
f 18/12/15 6/11/15 20/14/15 23/13/15
f 16/18/16 24/9/16 18/12/16 5/19/16
f 7/31/17 15/8/17 24/9/17 16/18/17
f 15/8/18 8/7/18 17/10/18 24/9/18
f 13/34/19 25/5/19 15/8/19 7/31/19
f 3/35/20 12/4/20 25/5/20 13/34/20
f 12/4/21 4/3/21 14/6/21 25/5/21
f 9/36/22 26/1/22 12/4/22 3/35/22
f 1/37/23 10/38/23 26/1/23 9/36/23
f 10/38/24 2/39/24 11/2/24 26/1/24
f 52/40/25 37/41/25 30/42/25 38/43/25
f 51/44/26 40/45/26 34/46/26 41/47/26
f 50/48/27 43/49/27 32/50/27 44/51/27
f 49/52/28 46/53/28 28/54/28 36/55/28
f 48/56/29 42/57/29 31/58/29 45/59/29
f 47/60/30 37/61/30 28/62/30 46/63/30
f 43/49/31 47/60/31 46/63/31 32/50/31
f 34/46/32 40/64/32 47/60/32 43/49/32
f 40/64/33 30/65/33 37/61/33 47/60/33
f 35/66/34 48/56/34 45/59/34 27/67/34
f 29/68/35 39/69/35 48/56/35 35/66/35
f 39/69/36 33/70/36 42/57/36 48/56/36
f 45/71/37 49/52/37 36/55/37 27/72/37
f 31/58/38 44/51/38 49/52/38 45/71/38
f 44/51/39 32/50/39 46/53/39 49/52/39
f 42/57/40 50/48/40 44/51/40 31/58/40
f 33/70/41 41/47/41 50/48/41 42/57/41
f 41/47/42 34/46/42 43/49/42 50/48/42
f 39/73/43 51/44/43 41/47/43 33/70/43
f 29/74/44 38/43/44 51/44/44 39/73/44
f 38/43/45 30/42/45 40/45/45 51/44/45
f 35/75/46 52/40/46 38/43/46 29/74/46
f 27/76/47 36/77/47 52/40/47 35/75/47
f 36/77/48 28/78/48 37/41/48 52/40/48
f 78/79/49 63/80/49 56/81/49 64/82/49
f 77/83/50 66/84/50 60/85/50 67/86/50
f 76/87/51 69/88/51 58/89/51 70/90/51
f 75/91/52 72/92/52 54/93/52 62/94/52
f 74/95/53 68/96/53 57/97/53 71/98/53
f 73/99/54 63/100/54 54/101/54 72/102/54
f 69/88/55 73/99/55 72/102/55 58/89/55
f 60/85/56 66/103/56 73/99/56 69/88/56
f 66/103/57 56/104/57 63/100/57 73/99/57
f 61/105/58 74/95/58 71/98/58 53/106/58
f 55/107/59 65/108/59 74/95/59 61/105/59
f 65/108/60 59/109/60 68/96/60 74/95/60
f 71/110/61 75/91/61 62/94/61 53/111/61
f 57/97/62 70/90/62 75/91/62 71/110/62
f 70/90/63 58/89/63 72/92/63 75/91/63
f 68/96/64 76/87/64 70/90/64 57/97/64
f 59/109/65 67/86/65 76/87/65 68/96/65
f 67/86/66 60/85/66 69/88/66 76/87/66
f 65/112/67 77/83/67 67/86/67 59/109/67
f 55/113/68 64/82/68 77/83/68 65/112/68
f 64/82/69 56/81/69 66/84/69 77/83/69
f 61/114/70 78/79/70 64/82/70 55/113/70
f 53/115/71 62/116/71 78/79/71 61/114/71
f 62/116/72 54/117/72 63/80/72 78/79/72
f 104/118/25 89/119/25 82/120/25 90/121/25
f 103/122/26 92/123/26 86/124/26 93/125/26
f 102/126/27 95/127/27 84/128/27 96/129/27
f 101/130/28 98/131/28 80/132/28 88/133/28
f 100/134/29 94/135/29 83/136/29 97/137/29
f 99/138/30 89/139/30 80/140/30 98/141/30
f 95/127/31 99/138/31 98/141/31 84/128/31
f 86/124/32 92/142/32 99/138/32 95/127/32
f 92/142/33 82/143/33 89/139/33 99/138/33
f 87/144/34 100/134/34 97/137/34 79/145/34
f 81/146/35 91/147/35 100/134/35 87/144/35
f 91/147/36 85/148/36 94/135/36 100/134/36
f 97/149/37 101/130/37 88/133/37 79/150/37
f 83/136/38 96/129/38 101/130/38 97/149/38
f 96/129/39 84/128/39 98/131/39 101/130/39
f 94/135/40 102/126/40 96/129/40 83/136/40
f 85/148/41 93/125/41 102/126/41 94/135/41
f 93/125/42 86/124/42 95/127/42 102/126/42
f 91/151/43 103/122/43 93/125/43 85/148/43
f 81/152/44 90/121/44 103/122/44 91/151/44
f 90/121/45 82/120/45 92/123/45 103/122/45
f 87/153/46 104/118/46 90/121/46 81/152/46
f 79/154/47 88/155/47 104/118/47 87/153/47
f 88/155/48 80/156/48 89/119/48 104/118/48
f 130/157/73 115/158/73 108/159/73 116/160/73
f 129/161/74 118/162/74 112/163/74 119/164/74
f 128/165/75 121/166/75 110/167/75 122/168/75
f 127/169/76 124/170/76 106/171/76 114/172/76
f 126/173/77 120/174/77 109/175/77 123/176/77
f 125/177/78 115/178/78 106/179/78 124/180/78
f 121/166/79 125/177/79 124/180/79 110/167/79
f 112/163/80 118/181/80 125/177/80 121/166/80
f 118/181/81 108/182/81 115/178/81 125/177/81
f 113/183/82 126/173/82 123/176/82 105/184/82
f 107/185/83 117/186/83 126/173/83 113/183/83
f 117/186/84 111/187/84 120/174/84 126/173/84
f 123/188/85 127/169/85 114/172/85 105/189/85
f 109/175/86 122/168/86 127/169/86 123/188/86
f 122/168/87 110/167/87 124/170/87 127/169/87
f 120/174/88 128/165/88 122/168/88 109/175/88
f 111/187/89 119/164/89 128/165/89 120/174/89
f 119/164/90 112/163/90 121/166/90 128/165/90
f 117/190/91 129/161/91 119/164/91 111/187/91
f 107/191/92 116/160/92 129/161/92 117/190/92
f 116/160/93 108/159/93 118/162/93 129/161/93
f 113/192/94 130/157/94 116/160/94 107/191/94
f 105/193/95 114/194/95 130/157/95 113/192/95
f 114/194/96 106/195/96 115/158/96 130/157/96
